<svg width="160" height="185" viewBox="0 0 160 185" fill="none" xmlns="http://www.w3.org/2000/svg">
<path d="M10.3176 62.526L24.3036 44.76H10.3176V62.526ZM29.1636 67.44V49.836L15.4476 67.44H29.1636ZM32.9436 75H6.48362L2.75762 71.274V41.034L6.48362 37.2H32.9436L36.6696 41.034V71.274L32.9436 75ZM66.8307 44.76H47.9847V48.54H40.4247V41.034L44.1507 37.2H70.6107L74.3367 41.034V52.374L53.2767 67.44H74.3367V75H40.4247V67.44L66.8307 48.594V44.76Z" fill="#EE562F"/>
<path d="M10.3176 62.526L24.3036 44.76H10.3176V62.526ZM29.1636 67.44V49.836L15.4476 67.44H29.1636ZM32.9436 75H6.48362L2.75762 71.274V41.034L6.48362 37.2H32.9436L36.6696 41.034V71.274L32.9436 75ZM66.8307 44.76H47.9847V48.54H40.4247V41.034L44.1507 37.2H70.6107L74.3367 41.034V52.374L53.2767 67.44H74.3367V75H40.4247V67.44L66.8307 48.594V44.76Z" fill="url(#paint0_linear_2_5566)" fill-opacity="0.15"/>
<circle opacity="0.8" cx="36" cy="110" r="5" fill="#444444"/>
<circle opacity="0.5" cx="36" cy="145" r="5" fill="#444444"/>
<circle opacity="0.2" cx="36" cy="180" r="5" fill="#444444"/>
<circle opacity="0.8" cx="36" cy="5" r="5" fill="#444444"/>
<path d="M93.392 75V63.64H98.128C98.6293 63.64 99.088 63.7467 99.504 63.96C99.9307 64.1627 100.293 64.44 100.592 64.792C100.901 65.1333 101.141 65.5227 101.312 65.96C101.483 66.3867 101.568 66.824 101.568 67.272C101.568 67.7413 101.488 68.1947 101.328 68.632C101.168 69.0693 100.939 69.4587 100.64 69.8C100.352 70.1413 100 70.4133 99.584 70.616C99.1787 70.8187 98.7253 70.92 98.224 70.92H94.832V75H93.392ZM94.832 69.64H98.144C98.4427 69.64 98.7093 69.5813 98.944 69.464C99.1893 69.336 99.3973 69.1653 99.568 68.952C99.7387 68.728 99.872 68.472 99.968 68.184C100.064 67.896 100.112 67.592 100.112 67.272C100.112 66.9413 100.053 66.632 99.936 66.344C99.8293 66.056 99.68 65.8053 99.488 65.592C99.3067 65.3787 99.088 65.2133 98.832 65.096C98.5867 64.9787 98.3253 64.92 98.048 64.92H94.832V69.64ZM106.676 75.16C106.046 75.16 105.47 75.048 104.948 74.824C104.425 74.5893 103.977 74.2747 103.604 73.88C103.23 73.4853 102.937 73.0267 102.724 72.504C102.521 71.9707 102.42 71.4107 102.42 70.824C102.42 70.2373 102.521 69.6827 102.724 69.16C102.937 68.6373 103.23 68.1787 103.604 67.784C103.988 67.3893 104.441 67.08 104.964 66.856C105.486 66.6213 106.062 66.504 106.692 66.504C107.321 66.504 107.892 66.6213 108.404 66.856C108.926 67.0907 109.369 67.4053 109.732 67.8C110.094 68.184 110.372 68.6373 110.564 69.16C110.766 69.672 110.868 70.2053 110.868 70.76C110.868 70.8773 110.862 70.984 110.852 71.08C110.852 71.176 110.846 71.2507 110.836 71.304H103.908C103.94 71.72 104.036 72.0987 104.196 72.44C104.356 72.7813 104.564 73.0747 104.82 73.32C105.076 73.5653 105.364 73.7573 105.684 73.896C106.014 74.0347 106.361 74.104 106.724 74.104C106.98 74.104 107.23 74.072 107.476 74.008C107.721 73.9333 107.95 73.8373 108.164 73.72C108.377 73.6027 108.564 73.4587 108.724 73.288C108.894 73.1173 109.022 72.9253 109.108 72.712L110.324 73.048C110.185 73.3573 109.993 73.64 109.748 73.896C109.513 74.152 109.236 74.376 108.916 74.568C108.606 74.7493 108.26 74.8933 107.876 75C107.492 75.1067 107.092 75.16 106.676 75.16ZM109.54 70.264C109.508 69.8693 109.406 69.5067 109.236 69.176C109.076 68.8347 108.868 68.5467 108.612 68.312C108.366 68.0773 108.078 67.896 107.748 67.768C107.417 67.6293 107.065 67.56 106.692 67.56C106.318 67.56 105.966 67.6293 105.636 67.768C105.305 67.896 105.012 68.0827 104.756 68.328C104.51 68.5627 104.308 68.8453 104.148 69.176C103.998 69.5067 103.908 69.8693 103.876 70.264H109.54ZM112.465 75V66.648H113.841V73.784H116.529V66.648H117.905V73.784H120.609V66.648H121.985V75H112.465ZM127.988 75.16C127.359 75.16 126.783 75.048 126.26 74.824C125.738 74.5893 125.29 74.2747 124.916 73.88C124.543 73.4853 124.25 73.0267 124.036 72.504C123.834 71.9707 123.732 71.4107 123.732 70.824C123.732 70.2373 123.834 69.6827 124.036 69.16C124.25 68.6373 124.543 68.1787 124.916 67.784C125.3 67.3893 125.754 67.08 126.276 66.856C126.799 66.6213 127.375 66.504 128.004 66.504C128.634 66.504 129.204 66.6213 129.716 66.856C130.239 67.0907 130.682 67.4053 131.044 67.8C131.407 68.184 131.684 68.6373 131.876 69.16C132.079 69.672 132.18 70.2053 132.18 70.76C132.18 70.8773 132.175 70.984 132.164 71.08C132.164 71.176 132.159 71.2507 132.148 71.304H125.22C125.252 71.72 125.348 72.0987 125.508 72.44C125.668 72.7813 125.876 73.0747 126.132 73.32C126.388 73.5653 126.676 73.7573 126.996 73.896C127.327 74.0347 127.674 74.104 128.036 74.104C128.292 74.104 128.543 74.072 128.788 74.008C129.034 73.9333 129.263 73.8373 129.476 73.72C129.69 73.6027 129.876 73.4587 130.036 73.288C130.207 73.1173 130.335 72.9253 130.42 72.712L131.636 73.048C131.498 73.3573 131.306 73.64 131.06 73.896C130.826 74.152 130.548 74.376 130.228 74.568C129.919 74.7493 129.572 74.8933 129.188 75C128.804 75.1067 128.404 75.16 127.988 75.16ZM130.852 70.264C130.82 69.8693 130.719 69.5067 130.548 69.176C130.388 68.8347 130.18 68.5467 129.924 68.312C129.679 68.0773 129.391 67.896 129.06 67.768C128.73 67.6293 128.378 67.56 128.004 67.56C127.631 67.56 127.279 67.6293 126.948 67.768C126.618 67.896 126.324 68.0827 126.068 68.328C125.823 68.5627 125.62 68.8453 125.46 69.176C125.311 69.5067 125.22 69.8693 125.188 70.264H130.852ZM135.153 70.12H139.377V66.648H140.753V75H139.377V71.288H135.153V75H133.777V66.648H135.153V70.12ZM144.466 73.016L149.01 66.648H150.146V75H148.77V68.76L144.306 75H143.09V66.648H144.466V73.016ZM153.808 71.736C153.339 71.5653 152.949 71.2827 152.64 70.888C152.331 70.4933 152.176 69.976 152.176 69.336C152.176 68.9413 152.245 68.5787 152.384 68.248C152.533 67.9173 152.736 67.6347 152.992 67.4C153.248 67.1547 153.547 66.968 153.888 66.84C154.229 66.712 154.603 66.648 155.008 66.648H158.128V75H156.752V71.976H155.168L153.344 75H151.744L153.808 71.736ZM156.752 70.76V67.864H155.088C154.907 67.864 154.725 67.896 154.544 67.96C154.363 68.024 154.197 68.12 154.048 68.248C153.909 68.376 153.792 68.5307 153.696 68.712C153.611 68.8933 153.568 69.1013 153.568 69.336C153.568 69.784 153.712 70.136 154 70.392C154.288 70.6373 154.624 70.76 155.008 70.76H156.752Z" fill="#444444"/>
<defs>
<linearGradient id="paint0_linear_2_5566" x1="0" y1="20" x2="55.8219" y2="99.2186" gradientUnits="userSpaceOnUse">
<stop stop-color="white" stop-opacity="0"/>
<stop offset="0.546875" stop-color="white"/>
<stop offset="1" stop-color="white" stop-opacity="0"/>
</linearGradient>
</defs>
</svg>
