<svg width="40" height="40" viewBox="0 0 40 40" fill="none" xmlns="http://www.w3.org/2000/svg">
<path d="M20 39.9993C31.0457 39.9993 40 31.0452 40 19.9996C40 8.95413 31.0457 0 20 0C8.95431 0 0 8.95413 0 19.9996C0 31.0452 8.95431 39.9993 20 39.9993Z" fill="#EE562F"/>
<path d="M20 39.9993C31.0457 39.9993 40 31.0452 40 19.9996C40 8.95413 31.0457 0 20 0C8.95431 0 0 8.95413 0 19.9996C0 31.0452 8.95431 39.9993 20 39.9993Z" fill="url(#paint0_linear_846_1722)" fill-opacity="0.2"/>
<path d="M8.19043 31.2903L9.8637 25.0721C8.91401 23.3649 8.42788 21.4542 8.42788 19.5209C8.42788 13.1896 13.5833 8.03418 19.9146 8.03418C26.2458 8.03418 31.4013 13.1896 31.4013 19.5209C31.4013 25.8522 26.2458 31.0076 19.9146 31.0076C18.0152 31.0076 16.1384 30.5328 14.4539 29.617L8.20175 31.2903H8.19043ZM14.7591 27.288L15.1548 27.5254C16.602 28.3846 18.2413 28.8369 19.9146 28.8369C25.0474 28.8369 29.2306 24.6537 29.2306 19.5209C29.2306 14.3881 25.0474 10.2049 19.9146 10.2049C14.7817 10.2049 10.5986 14.3881 10.5986 19.5209C10.5986 21.2168 11.0734 22.89 11.9666 24.3485L12.204 24.7442L11.2769 28.2151L14.7704 27.2767L14.7591 27.288Z" fill="white"/>
<path fill-rule="evenodd" clip-rule="evenodd" d="M24.1767 21.1149C23.7018 20.8323 23.0913 20.5157 22.526 20.7418C22.0964 20.9114 21.8251 21.5898 21.5537 21.9289C21.4067 22.1098 21.2372 22.1324 21.0223 22.042C19.4169 21.3975 18.1846 20.3348 17.3027 18.8537C17.1557 18.6276 17.1784 18.4467 17.3593 18.2319C17.6306 17.9153 17.9585 17.5649 18.0376 17.1352C18.1055 16.7056 17.9132 16.2195 17.7324 15.8351C17.5062 15.3489 17.2575 14.6593 16.7713 14.3879C16.3304 14.1392 15.7425 14.2749 15.3468 14.6027C14.6685 15.1567 14.3293 16.0273 14.3406 16.8978C14.3406 17.1465 14.3745 17.384 14.4311 17.6214C14.5667 18.1867 14.8381 18.7294 15.132 19.2268C15.3581 19.6112 15.5955 19.9843 15.8556 20.3348C16.7148 21.4993 17.7776 22.5168 19.0212 23.2743C19.6431 23.6474 20.2988 23.9866 20.9884 24.2127C21.7572 24.4727 22.4469 24.7328 23.2835 24.5745C24.1541 24.4049 25.0133 23.8735 25.3638 23.0256C25.4655 22.7769 25.5221 22.4942 25.4655 22.2342C25.3525 21.6915 24.6063 21.3636 24.1654 21.1036L24.1767 21.1149Z" fill="white"/>
<defs>
<linearGradient id="paint0_linear_846_1722" x1="20" y1="0" x2="20" y2="39.9993" gradientUnits="userSpaceOnUse">
<stop stop-color="white"/>
<stop offset="1" stop-color="white" stop-opacity="0"/>
</linearGradient>
</defs>
</svg>
