<svg width="142" height="165" viewBox="0 0 142 165" fill="none" xmlns="http://www.w3.org/2000/svg">
<path d="M10.7034 42.526L24.6894 24.76H10.7034V42.526ZM29.5494 47.44V29.836L15.8334 47.44H29.5494ZM33.3294 55H6.86936L3.14336 51.274V21.034L6.86936 17.2H33.3294L37.0554 21.034V51.274L33.3294 55ZM55.8765 55H48.3705V24.76H40.8105V17.2H55.8765V55Z" fill="#EE562F"/>
<path d="M10.7034 42.526L24.6894 24.76H10.7034V42.526ZM29.5494 47.44V29.836L15.8334 47.44H29.5494ZM33.3294 55H6.86936L3.14336 51.274V21.034L6.86936 17.2H33.3294L37.0554 21.034V51.274L33.3294 55ZM55.8765 55H48.3705V24.76H40.8105V17.2H55.8765V55Z" fill="url(#paint0_linear_981_1384)" fill-opacity="0.15"/>
<circle opacity="0.8" cx="27" cy="90" r="5" fill="white"/>
<circle opacity="0.5" cx="27" cy="125" r="5" fill="white"/>
<circle opacity="0.2" cx="27" cy="160" r="5" fill="white"/>
<path d="M90.936 44.92H85.832V55H84.392V43.64H90.936V44.92ZM88.8765 53.848C89.2178 53.816 89.5005 53.736 89.7245 53.608C89.9592 53.4693 90.1512 53.2293 90.3005 52.888C90.4605 52.536 90.5938 52.0507 90.7005 51.432C90.8072 50.8027 90.9138 49.9867 91.0205 48.984L91.2765 46.648H96.4765V55H95.1005V47.752H92.5725L92.3325 49.56C92.1832 50.648 92.0232 51.544 91.8525 52.248C91.6925 52.9413 91.4898 53.496 91.2445 53.912C90.9992 54.3173 90.7058 54.6053 90.3645 54.776C90.0232 54.9467 89.6072 55.048 89.1165 55.08L88.8765 53.848ZM100.921 55.16C100.526 55.16 100.158 55.096 99.8166 54.968C99.4753 54.8293 99.1766 54.6427 98.9206 54.408C98.6753 54.1733 98.478 53.9013 98.3286 53.592C98.19 53.272 98.1206 52.9253 98.1206 52.552C98.1206 52.168 98.206 51.8213 98.3766 51.512C98.5473 51.192 98.7873 50.92 99.0966 50.696C99.4166 50.472 99.79 50.296 100.217 50.168C100.654 50.04 101.129 49.976 101.641 49.976C102.046 49.976 102.457 50.0133 102.873 50.088C103.289 50.1627 103.657 50.264 103.977 50.392V49.72C103.977 49.0373 103.785 48.504 103.401 48.12C103.017 47.7253 102.473 47.528 101.769 47.528C100.926 47.528 100.041 47.8533 99.1126 48.504L98.6486 47.592C99.726 46.8667 100.809 46.504 101.897 46.504C102.995 46.504 103.849 46.7973 104.457 47.384C105.075 47.9707 105.385 48.7973 105.385 49.864V53.272C105.385 53.6027 105.534 53.7733 105.833 53.784V55C105.683 55.0213 105.561 55.0373 105.465 55.048C105.369 55.0587 105.267 55.064 105.161 55.064C104.883 55.064 104.659 54.984 104.489 54.824C104.329 54.6533 104.233 54.4507 104.201 54.216L104.169 53.624C103.795 54.1253 103.321 54.5093 102.745 54.776C102.179 55.032 101.571 55.16 100.921 55.16ZM101.289 54.104C101.79 54.104 102.254 54.0133 102.681 53.832C103.118 53.64 103.449 53.3893 103.673 53.08C103.875 52.8773 103.977 52.6693 103.977 52.456V51.224C103.294 50.9573 102.585 50.824 101.849 50.824C101.145 50.824 100.569 50.9733 100.121 51.272C99.6833 51.5707 99.4646 51.96 99.4646 52.44C99.4646 52.6747 99.5073 52.8933 99.5926 53.096C99.6886 53.2987 99.8166 53.4747 99.9766 53.624C100.147 53.7733 100.345 53.8907 100.569 53.976C100.793 54.0613 101.033 54.104 101.289 54.104ZM111.924 46.648C112.222 46.648 112.5 46.7013 112.756 46.808C113.012 46.904 113.236 47.0427 113.428 47.224C113.62 47.4053 113.769 47.624 113.876 47.88C113.982 48.1253 114.036 48.3973 114.036 48.696C114.036 48.8773 114.014 49.064 113.972 49.256C113.929 49.4373 113.86 49.6187 113.764 49.8C113.678 49.9707 113.561 50.1307 113.412 50.28C113.262 50.4293 113.081 50.5467 112.868 50.632C113.326 50.76 113.689 51 113.956 51.352C114.222 51.6933 114.356 52.1253 114.356 52.648C114.356 53 114.292 53.3253 114.164 53.624C114.036 53.912 113.854 54.1573 113.62 54.36C113.396 54.5627 113.124 54.7227 112.804 54.84C112.494 54.9467 112.148 55 111.764 55H107.716V46.648H111.924ZM111.364 50.216C111.769 50.216 112.084 50.104 112.308 49.88C112.542 49.6453 112.66 49.3253 112.66 48.92C112.66 48.5787 112.569 48.2907 112.388 48.056C112.206 47.8107 111.902 47.688 111.476 47.688H109.092V50.216H111.364ZM111.604 53.96C112.03 53.96 112.366 53.8267 112.612 53.56C112.868 53.2827 112.996 52.9573 112.996 52.584C112.996 52.232 112.878 51.9227 112.644 51.656C112.409 51.3893 112.073 51.256 111.636 51.256H109.092V53.96H111.604ZM117.497 50.12H121.721V46.648H123.097V55H121.721V51.288H117.497V55H116.121V46.648H117.497V50.12ZM127.546 55.16C127.151 55.16 126.783 55.096 126.442 54.968C126.1 54.8293 125.802 54.6427 125.546 54.408C125.3 54.1733 125.103 53.9013 124.954 53.592C124.815 53.272 124.746 52.9253 124.746 52.552C124.746 52.168 124.831 51.8213 125.002 51.512C125.172 51.192 125.412 50.92 125.722 50.696C126.042 50.472 126.415 50.296 126.842 50.168C127.279 50.04 127.754 49.976 128.266 49.976C128.671 49.976 129.082 50.0133 129.498 50.088C129.914 50.1627 130.282 50.264 130.602 50.392V49.72C130.602 49.0373 130.41 48.504 130.026 48.12C129.642 47.7253 129.098 47.528 128.394 47.528C127.551 47.528 126.666 47.8533 125.738 48.504L125.274 47.592C126.351 46.8667 127.434 46.504 128.522 46.504C129.62 46.504 130.474 46.7973 131.082 47.384C131.7 47.9707 132.01 48.7973 132.01 49.864V53.272C132.01 53.6027 132.159 53.7733 132.458 53.784V55C132.308 55.0213 132.186 55.0373 132.09 55.048C131.994 55.0587 131.892 55.064 131.786 55.064C131.508 55.064 131.284 54.984 131.114 54.824C130.954 54.6533 130.858 54.4507 130.826 54.216L130.794 53.624C130.42 54.1253 129.946 54.5093 129.37 54.776C128.804 55.032 128.196 55.16 127.546 55.16ZM127.914 54.104C128.415 54.104 128.879 54.0133 129.306 53.832C129.743 53.64 130.074 53.3893 130.298 53.08C130.5 52.8773 130.602 52.6693 130.602 52.456V51.224C129.919 50.9573 129.21 50.824 128.474 50.824C127.77 50.824 127.194 50.9733 126.746 51.272C126.308 51.5707 126.09 51.96 126.09 52.44C126.09 52.6747 126.132 52.8933 126.218 53.096C126.314 53.2987 126.442 53.4747 126.602 53.624C126.772 53.7733 126.97 53.8907 127.194 53.976C127.418 54.0613 127.658 54.104 127.914 54.104ZM135.621 51.736C135.151 51.5653 134.762 51.2827 134.453 50.888C134.143 50.4933 133.989 49.976 133.989 49.336C133.989 48.9413 134.058 48.5787 134.197 48.248C134.346 47.9173 134.549 47.6347 134.805 47.4C135.061 47.1547 135.359 46.968 135.701 46.84C136.042 46.712 136.415 46.648 136.821 46.648H139.941V55H138.565V51.976H136.981L135.157 55H133.557L135.621 51.736ZM138.565 50.76V47.864H136.901C136.719 47.864 136.538 47.896 136.357 47.96C136.175 48.024 136.01 48.12 135.861 48.248C135.722 48.376 135.605 48.5307 135.509 48.712C135.423 48.8933 135.381 49.1013 135.381 49.336C135.381 49.784 135.525 50.136 135.813 50.392C136.101 50.6373 136.437 50.76 136.821 50.76H138.565Z" fill="white"/>
<defs>
<linearGradient id="paint0_linear_981_1384" x1="0" y1="0" x2="59" y2="65" gradientUnits="userSpaceOnUse">
<stop stop-color="white" stop-opacity="0"/>
<stop offset="0.546875" stop-color="white"/>
<stop offset="1" stop-color="white" stop-opacity="0"/>
</linearGradient>
</defs>
</svg>
